<svg width="22" height="26" viewBox="0 0 22 26" fill="none" xmlns="http://www.w3.org/2000/svg">
<path opacity="0.75" d="M12.447 12.9804L21.3555 21.8493C21.9713 22.4623 21.9713 23.4535 21.3555 24.0599L19.8752 25.5337C19.2594 26.1467 18.2638 26.1467 17.6546 25.5337L11.3335 19.2538L5.01892 25.5403C4.40319 26.1532 3.40753 26.1532 2.79835 25.5403L1.31141 24.0665C0.695676 23.4535 0.695676 22.4623 1.31141 21.8558L10.2199 12.987C10.8357 12.3674 11.8313 12.3674 12.447 12.9804ZM10.2199 0.459744L1.31141 9.32857C0.695676 9.94156 0.695676 10.9328 1.31141 11.5393L2.79179 13.013C3.40753 13.626 4.40319 13.626 5.01237 13.013L11.3269 6.72661L17.6415 13.013C18.2572 13.626 19.2529 13.626 19.8621 13.013L21.3424 11.5393C21.9582 10.9263 21.9582 9.93504 21.3424 9.32857L12.4339 0.459744C11.8313 -0.153248 10.8357 -0.153248 10.2199 0.459744Z" fill="url(#paint0_linear_33_276)"/>
<defs>
<linearGradient id="paint0_linear_33_276" x1="0.849609" y1="0" x2="26.2594" y2="20.4918" gradientUnits="userSpaceOnUse">
<stop stop-color="#E1E3F5"/>
<stop offset="1" stop-color="#C1BFD5"/>
</linearGradient>
</defs>
</svg>
